<svg height="512pt" viewBox="0 0 512 512" width="512pt" xmlns="http://www.w3.org/2000/svg" xmlns:xlink="http://www.w3.org/1999/xlink"><linearGradient id="a" gradientTransform="matrix(1 0 0 -1 0 -16582)" gradientUnits="userSpaceOnUse" x1="0" x2="512" y1="-16838" y2="-16838"><stop offset="0" stop-color="#00f38d"/><stop offset="1" stop-color="#009eff"/></linearGradient><path d="m512 256c0 141.386719-114.613281 256-256 256s-256-114.613281-256-256 114.613281-256 256-256 256 114.613281 256 256zm0 0" fill="url(#a)"/><path d="m327.914062 67.035156h-114.785156c-24.160156 0-43.820312 19.65625-43.820312 43.816406v13.769532h-13.816406c-24.160157 0-43.816407 19.65625-43.816407 43.816406v224.78125c0 24.160156 19.65625 43.816406 43.816407 43.816406h168.585937c24.160156 0 43.816406-19.65625 43.816406-43.816406v-13.816406h6.617188c24.160156 0 43.816406-19.65625 43.816406-43.8125v-177.625zm8.28125 50.878906 31.027344 31.199219h-17.207031c-7.621094 0-13.820313-6.199219-13.820313-13.816406zm1.699219 275.304688c0 7.621094-6.199219 13.816406-13.816406 13.816406h-168.585937c-7.621094 0-13.816407-6.195312-13.816407-13.816406v-224.78125c0-7.617188 6.195313-13.816406 13.816407-13.816406h13.816406v181.019531c0 24.160156 19.660156 43.8125 43.824218 43.8125l124.761719-.039063zm36.609375-43.820312-161.375.054687c-7.621094 0-13.820312-6.195313-13.820312-13.8125v-224.789063c0-7.617187 6.199218-13.816406 13.820312-13.816406h93.066406v38.261719c0 24.160156 19.65625 43.816406 43.820313 43.816406h38.3125v156.476563c0 7.613281-6.199219 13.808594-13.824219 13.808594zm0 0" fill="#fff"/></svg>