<svg height="512" viewBox="0 0 512 512" width="512" xmlns="http://www.w3.org/2000/svg" xmlns:xlink="http://www.w3.org/1999/xlink"><linearGradient id="linear-gradient" gradientUnits="userSpaceOnUse" x1="53.583" x2="420.187" y1="468.565" y2="101.961"><stop offset="0" stop-color="#41dfd0"/><stop offset="1" stop-color="#ee83ef"/></linearGradient><g id="gradient"><path d="m264 288a24 24 0 1 0 24-24 24.028 24.028 0 0 0 -24 24zm32 0a8 8 0 1 1 -8-8 8.009 8.009 0 0 1 8 8zm30.328 130.715a8 8 0 0 1 -3.577 10.733 24 24 0 1 1 -21.466-42.932 8 8 0 1 1 7.154 14.312 8 8 0 0 0 7.156 14.31 8 8 0 0 1 10.733 3.577zm113.672-148.702v-18.013a20.023 20.023 0 0 0 -20-20h-4v-44.6a28.032 28.032 0 0 0 -28-28h-4v-4a27.84 27.84 0 0 0 -5.176-16.189 7.982 7.982 0 0 0 .372-6.845l-48.88-119.4a8 8 0 0 0 -10.434-4.366l-274.913 112.541a8 8 0 0 0 -4.924 6.547 28.038 28.038 0 0 0 -24.045 27.712v264a28.031 28.031 0 0 0 28 28h189.342a87.989 87.989 0 0 0 161.039-8.46c1.125.175 2.256.337 3.4.47a89.532 89.532 0 0 0 10.39.607 88.024 88.024 0 0 0 31.829-170.004zm-56-94.613h4a12.013 12.013 0 0 1 12 12v44.6h-16zm36 72.6a4 4 0 0 1 4 4v13.5c-1.915-.352-3.842-.665-5.793-.893a88.073 88.073 0 0 0 -92.619 56.448 88.142 88.142 0 0 0 -47.423 5.727 40 40 0 0 1 9.835-78.782zm-11.648 32-1.873 16.027a56.106 56.106 0 0 0 -52.6 41.6l-16.018-1.872a72.008 72.008 0 0 1 69.989-55.755c.167 0 .335 0 .502.005zm-86.987 56.6c-.3 1.717-.574 3.445-.778 5.192a88.571 88.571 0 0 0 -.595 10.765 55.449 55.449 0 0 0 -25.608 2.268l-7.2-14.405a72.158 72.158 0 0 1 34.181-3.82zm-2.825-310.165 41.453 101.258a27.978 27.978 0 0 0 -3.993-.293h-20.229a7.987 7.987 0 0 0 -.447-4.553l-19.624-47.93a8 8 0 0 0 -10.434-4.372l-6.848 2.8a14.217 14.217 0 0 1 -18.518-7.757 8 8 0 0 0 -10.434-4.372l-160.5 65.705a8.205 8.205 0 0 0 -.966.482h-36.1zm-80.709 65.021 31.29-12.81a30.263 30.263 0 0 0 34.8 9.732l13.888 33.922a37.472 37.472 0 0 0 -5.48 4.6c-.16.163-.306.334-.45.506h-38.727c-.319-.9-.657-1.791-1.017-2.671a59.629 59.629 0 0 0 -34.304-33.279zm17.924 35.944h-77.911a43.917 43.917 0 0 1 22.347-20.538l.037-.015a43.846 43.846 0 0 1 55.527 20.553zm-93.179-5.139c-.779 1.675-1.487 3.387-2.111 5.139h-10.444zm64.612 309.139h-183.188a12.013 12.013 0 0 1 -12-12v-264a12.013 12.013 0 0 1 12-12h312a12.013 12.013 0 0 1 12 12v20.6h-32a8 8 0 0 0 0 16h32v40h-80a56.02 56.02 0 0 0 -27.638 104.737 88.23 88.23 0 0 0 -33.174 94.663zm17.26 1.42a72.121 72.121 0 0 1 28.418-85.254l7.207 14.413a56.022 56.022 0 0 0 -21.211 63.633zm7.155 14.311 14.415-7.207a55.793 55.793 0 0 0 63.625 21.2l7.215 14.429a72.126 72.126 0 0 1 -85.258-28.419zm78.3-3.374a40 40 0 0 1 -35.78-71.553 39.729 39.729 0 0 1 27.547-3.025 88.394 88.394 0 0 0 28.878 49.467 39.882 39.882 0 0 1 -20.643 25.114zm21.262 24.634-7.214-14.429a55.737 55.737 0 0 0 20.225-25.646 87.353 87.353 0 0 0 14.557 6.689 72.212 72.212 0 0 1 -27.566 33.389zm40.6-46.465c-.176-.063-.351-.128-.535-.179a7.97 7.97 0 0 0 -2.26-.289 72.012 72.012 0 0 1 -52.97-69.809l16.018 1.872a56.118 56.118 0 0 0 41.6 52.6zm11.584-30.192a40 40 0 1 1 29.453-8.353 40.045 40.045 0 0 1 -29.452 8.356zm49.3 16.748a71.428 71.428 0 0 1 -45.015 15.518l1.871-16.014a56 56 0 0 0 52.614-41.6l16.008 1.871a71.442 71.442 0 0 1 -25.477 40.228zm11.316-57.991a56.114 56.114 0 0 0 -41.594-52.6l1.872-16.018a71.966 71.966 0 0 1 55.74 70.493zm-37.148-13.372a24 24 0 0 1 -18.808 38.887 24.38 24.38 0 0 1 -2.8-.163 8 8 0 1 1 1.857-15.893 8 8 0 1 0 1.858-15.891 8 8 0 1 1 1.857-15.892 23.839 23.839 0 0 1 16.037 8.955zm-338.817-153.119a8 8 0 0 1 -8 8h-24a8 8 0 0 1 0-16h24a8 8 0 0 1 8 8zm56 0a8 8 0 0 1 -8 8h-24a8 8 0 0 1 0-16h24a8 8 0 0 1 8 8zm56 0a8 8 0 0 1 -8 8h-24a8 8 0 0 1 0-16h24a8 8 0 0 1 8 8zm48 8h-24a8 8 0 0 1 0-16h24a8 8 0 0 1 0 16zm24-8a8 8 0 0 1 8-8h24a8 8 0 0 1 0 16h-24a8 8 0 0 1 -8-8zm-184 208a8 8 0 0 1 -8 8h-24a8 8 0 0 1 0-16h24a8 8 0 0 1 8 8zm56 0a8 8 0 0 1 -8 8h-24a8 8 0 0 1 0-16h24a8 8 0 0 1 8 8zm56 0a8 8 0 0 1 -8 8h-24a8 8 0 0 1 0-16h24a8 8 0 0 1 8 8z" fill="url(#linear-gradient)"/></g></svg>